<svg width="25" height="24" viewBox="0 0 25 24" fill="none" xmlns="http://www.w3.org/2000/svg">
<mask id="mask0_126_1940" style="mask-type:alpha" maskUnits="userSpaceOnUse" x="0" y="0" width="25" height="24">
<rect x="0.333496" width="24" height="24" fill="#D9D9D9"/>
</mask>
<g mask="url(#mask0_126_1940)">
<path d="M7.8335 16.5H13.8335V15.5H7.8335V16.5ZM7.8335 12.5H16.8335V11.5H7.8335V12.5ZM7.8335 8.5H16.8335V7.5H7.8335V8.5ZM5.94887 20C5.48862 20 5.10433 19.8458 4.796 19.5375C4.48766 19.2292 4.3335 18.8449 4.3335 18.3846V5.61537C4.3335 5.15512 4.48766 4.77083 4.796 4.4625C5.10433 4.15417 5.48862 4 5.94887 4H18.7181C19.1784 4 19.5627 4.15417 19.871 4.4625C20.1793 4.77083 20.3335 5.15512 20.3335 5.61537V18.3846C20.3335 18.8449 20.1793 19.2292 19.871 19.5375C19.5627 19.8458 19.1784 20 18.7181 20H5.94887ZM5.94887 19H18.7181C18.872 19 19.013 18.9359 19.1412 18.8077C19.2694 18.6795 19.3335 18.5385 19.3335 18.3846V5.61537C19.3335 5.46154 19.2694 5.32052 19.1412 5.1923C19.013 5.0641 18.872 5 18.7181 5H5.94887C5.79504 5 5.65401 5.0641 5.5258 5.1923C5.3976 5.32052 5.3335 5.46154 5.3335 5.61537V18.3846C5.3335 18.5385 5.3976 18.6795 5.5258 18.8077C5.65401 18.9359 5.79504 19 5.94887 19Z" fill="#FBFBFB"/>
</g>
</svg>
