<svg width="22" height="22" viewBox="0 0 22 22" fill="none" xmlns="http://www.w3.org/2000/svg">
<path d="M2.48684 21.6673C1.87317 21.6673 1.36079 21.4618 0.949674 21.0507C0.538563 20.6395 0.333008 20.1272 0.333008 19.5135V2.48782C0.333008 1.87415 0.538563 1.36176 0.949674 0.950651C1.36079 0.53954 1.87317 0.333984 2.48684 0.333984H19.5125C20.1262 0.333984 20.6386 0.53954 21.0497 0.950651C21.4608 1.36176 21.6663 1.87415 21.6663 2.48782V19.5135C21.6663 20.1272 21.4608 20.6395 21.0497 21.0507C20.6386 21.4618 20.1262 21.6673 19.5125 21.6673H2.48684ZM1.66634 16.6263V19.5135C1.66634 19.7186 1.75181 19.9066 1.92274 20.0776C2.0937 20.2485 2.28173 20.334 2.48684 20.334H19.5125C19.7176 20.334 19.9057 20.2485 20.0766 20.0776C20.2475 19.9066 20.333 19.7186 20.333 19.5135V7.79552L13.4099 15.4981C13.1997 15.7357 12.9428 15.8558 12.6394 15.8584C12.336 15.8609 12.0766 15.7545 11.8612 15.5391L7.30737 10.9853L1.66634 16.6263ZM1.66634 14.7237L6.55351 9.83655C6.76891 9.62117 7.0202 9.51348 7.30737 9.51348C7.59455 9.51348 7.84583 9.62117 8.06121 9.83655L12.6253 14.4007L20.333 5.79552V2.48782C20.333 2.28271 20.2475 2.09467 20.0766 1.92372C19.9057 1.75278 19.7176 1.66732 19.5125 1.66732H2.48684C2.28173 1.66732 2.0937 1.75278 1.92274 1.92372C1.75181 2.09467 1.66634 2.28271 1.66634 2.48782V14.7237ZM1.66634 7.79552V5.79552V14.4007V9.08268V16.6263V10.9853V16.334V7.79552ZM1.66634 14.7237V1.66732V14.4007V9.08268V14.7237ZM1.66634 16.6263V10.9853V16.334V7.79552V20.334V16.6263Z" fill="#FBFBFB"/>
</svg>
