<svg width="24" height="24" viewBox="0 0 24 24" fill="none" xmlns="http://www.w3.org/2000/svg">
<mask id="mask0_134_3372" style="mask-type:alpha" maskUnits="userSpaceOnUse" x="0" y="0" width="24" height="24">
<rect width="24" height="24" fill="white"/>
</mask>
<g mask="url(#mask0_134_3372)">
<path d="M5.3077 20.5C4.80257 20.5 4.375 20.325 4.025 19.975C3.675 19.625 3.5 19.1974 3.5 18.6923V5.3077C3.5 4.80257 3.675 4.375 4.025 4.025C4.375 3.675 4.80257 3.5 5.3077 3.5H18.6923C19.1974 3.5 19.625 3.675 19.975 4.025C20.325 4.375 20.5 4.80257 20.5 5.3077V18.6923C20.5 19.1974 20.325 19.625 19.975 19.975C19.625 20.325 19.1974 20.5 18.6923 20.5H5.3077ZM4.99997 16.5846V18.6923C4.99997 18.7692 5.03202 18.8397 5.09612 18.9038C5.16024 18.9679 5.23077 19 5.3077 19H18.6923C18.7692 19 18.8397 18.9679 18.9038 18.9038C18.9679 18.8397 19 18.7692 19 18.6923V9.92303L13.7788 15.7865C13.6083 15.9839 13.3932 16.0852 13.1336 16.0903C12.874 16.0955 12.6538 16.0076 12.4731 15.8269L9.11538 12.4692L4.99997 16.5846ZM4.99997 14.4462L8.48268 10.9635C8.66344 10.7827 8.87434 10.6923 9.11538 10.6923C9.35639 10.6923 9.56728 10.7827 9.74805 10.9635L13.0846 14.3L19 7.67308V5.3077C19 5.23077 18.9679 5.16024 18.9038 5.09613C18.8397 5.03203 18.7692 4.99998 18.6923 4.99998H5.3077C5.23077 4.99998 5.16024 5.03203 5.09612 5.09613C5.03202 5.16024 4.99997 5.23077 4.99997 5.3077V14.4462ZM4.99997 9.92303V7.67308V14.3V10.3308V16.5846V12.4692V16.5V9.92303ZM4.99997 14.4462V4.99998V14.3V10.3308V14.4462ZM4.99997 16.5846V12.4692V16.5V9.92303V19V16.5846Z" fill="white"/>
</g>
</svg>
