<svg width="25" height="24" viewBox="0 0 25 24" fill="none" xmlns="http://www.w3.org/2000/svg">
<mask id="mask0_126_1950" style="mask-type:alpha" maskUnits="userSpaceOnUse" x="0" y="0" width="25" height="24">
<rect x="0.666504" width="24" height="24" fill="#D9D9D9"/>
</mask>
<g mask="url(#mask0_126_1950)">
<path d="M12.6665 11.3848C11.8415 11.3848 11.1353 11.091 10.5478 10.5035C9.96025 9.91604 9.6665 9.20979 9.6665 8.38479C9.6665 7.55977 9.96025 6.85352 10.5478 6.26602C11.1353 5.67852 11.8415 5.38477 12.6665 5.38477C13.4915 5.38477 14.1978 5.67852 14.7853 6.26602C15.3728 6.85352 15.6665 7.55977 15.6665 8.38479C15.6665 9.20979 15.3728 9.91604 14.7853 10.5035C14.1978 11.091 13.4915 11.3848 12.6665 11.3848ZM5.6665 18.6156V16.9694C5.6665 16.5566 5.7867 16.1704 6.02708 15.8107C6.26746 15.4511 6.59086 15.172 6.99728 14.9732C7.94086 14.5207 8.88509 14.1812 9.82995 13.955C10.7748 13.7287 11.7204 13.6155 12.6665 13.6155C13.6127 13.6155 14.5582 13.7287 15.5031 13.955C16.4479 14.1812 17.3921 14.5207 18.3357 14.9732C18.7421 15.172 19.0655 15.4511 19.3059 15.8107C19.5463 16.1704 19.6665 16.5566 19.6665 16.9694V18.6156H5.6665ZM6.6665 17.6155H18.6665V16.9694C18.6665 16.7476 18.595 16.5393 18.4521 16.3444C18.3091 16.1495 18.1114 15.9848 17.8588 15.8502C17.0357 15.4514 16.1871 15.146 15.3129 14.9338C14.4387 14.7216 13.5566 14.6155 12.6665 14.6155C11.7764 14.6155 10.8943 14.7216 10.0201 14.9338C9.1459 15.146 8.29727 15.4514 7.4742 15.8502C7.22164 15.9848 7.02388 16.1495 6.88093 16.3444C6.73798 16.5393 6.6665 16.7476 6.6665 16.9694V17.6155ZM12.6665 10.3848C13.2165 10.3848 13.6873 10.189 14.079 9.79729C14.4707 9.40562 14.6665 8.93479 14.6665 8.38479C14.6665 7.83479 14.4707 7.36396 14.079 6.97229C13.6873 6.58062 13.2165 6.38479 12.6665 6.38479C12.1165 6.38479 11.6457 6.58062 11.254 6.97229C10.8623 7.36396 10.6665 7.83479 10.6665 8.38479C10.6665 8.93479 10.8623 9.40562 11.254 9.79729C11.6457 10.189 12.1165 10.3848 12.6665 10.3848Z" fill="#FBFBFB"/>
</g>
</svg>
