<svg width="38" height="30" viewBox="0 0 38 30" fill="none" xmlns="http://www.w3.org/2000/svg">
<path d="M21.5 19.5H15C14.5743 19.5 14.2179 19.6436 13.9308 19.9308C13.6436 20.2179 13.5 20.5743 13.5 21C13.5 21.4256 13.6436 21.782 13.9308 22.0692C14.2179 22.3563 14.5743 22.4999 15 22.4999H17.5V23C17.5 23.4256 17.6436 23.782 17.9308 24.0692C18.2179 24.3563 18.5743 24.4999 19 24.4999C19.4256 24.4999 19.782 24.3563 20.0692 24.0692C20.3563 23.782 20.4999 23.4256 20.4999 23V22.4999H22.7307C23.2204 22.4999 23.6377 22.3275 23.9826 21.9826C24.3275 21.6377 24.4999 21.2204 24.4999 20.7307V15.2692C24.4999 14.7795 24.3275 14.3622 23.9826 14.0173C23.6377 13.6724 23.2204 13.5 22.7307 13.5H16.4999V10.4999H23C23.4256 10.4999 23.782 10.3563 24.0692 10.0691C24.3563 9.78198 24.4999 9.42558 24.4999 8.99995C24.4999 8.57432 24.3563 8.21792 24.0692 7.93075C23.782 7.64359 23.4256 7.5 23 7.5H20.4999V6.99995C20.4999 6.57432 20.3563 6.21792 20.0692 5.93075C19.782 5.64359 19.4256 5.5 19 5.5C18.5743 5.5 18.2179 5.64359 17.9308 5.93075C17.6436 6.21792 17.5 6.57432 17.5 6.99995V7.5H15.2692C14.7795 7.5 14.3622 7.67243 14.0173 8.0173C13.6724 8.36217 13.5 8.77947 13.5 9.2692V14.7307C13.5 15.2204 13.6724 15.6377 14.0173 15.9826C14.3622 16.3275 14.7795 16.4999 15.2692 16.4999H21.5V19.5ZM3.6154 29.9999C2.60513 29.9999 1.75 29.6499 1.05 28.9499C0.35 28.2499 0 27.3948 0 26.3845V3.6154C0 2.60514 0.35 1.75 1.05 1.05C1.75 0.35 2.60513 0 3.6154 0H34.3845C35.3948 0 36.2499 0.35 36.9499 1.05C37.6499 1.75 37.9999 2.60514 37.9999 3.6154V26.3845C37.9999 27.3948 37.6499 28.2499 36.9499 28.9499C36.2499 29.6499 35.3948 29.9999 34.3845 29.9999H3.6154ZM3.6154 27H34.3845C34.5384 27 34.6794 26.9359 34.8077 26.8077C34.9359 26.6794 35 26.5384 35 26.3845V3.6154C35 3.46154 34.9359 3.32049 34.8077 3.19225C34.6794 3.06405 34.5384 2.99995 34.3845 2.99995H3.6154C3.46153 2.99995 3.32048 3.06405 3.19225 3.19225C3.06405 3.32049 2.99995 3.46154 2.99995 3.6154V26.3845C2.99995 26.5384 3.06405 26.6794 3.19225 26.8077C3.32048 26.9359 3.46153 27 3.6154 27Z" fill="#FBFBFB"/>
</svg>
