<svg width="30" height="22" viewBox="0 0 30 22" fill="none" xmlns="http://www.w3.org/2000/svg">
<path d="M10.0998 18.0307L27.3767 0.753847C27.6742 0.456414 28.0274 0.304479 28.4363 0.298046C28.8453 0.291646 29.2049 0.44358 29.5151 0.753847C29.8254 1.06408 29.9805 1.42048 29.9805 1.82305C29.9805 2.22558 29.8254 2.58198 29.5151 2.89225L11.3651 21.0422C11.0036 21.4037 10.5818 21.5845 10.0998 21.5845C9.61773 21.5845 9.19595 21.4037 8.83442 21.0422L0.484418 12.6922C0.186985 12.3948 0.0401851 12.0416 0.0440185 11.6326C0.0478851 11.2237 0.204935 10.8641 0.515169 10.5538C0.825435 10.2436 1.18184 10.0884 1.58437 10.0884C1.98694 10.0884 2.34334 10.2436 2.65357 10.5538L10.0998 18.0307Z" fill="#FBFBFB"/>
</svg>
