<svg width="34" height="34" viewBox="0 0 34 34" fill="none" xmlns="http://www.w3.org/2000/svg">
<path d="M17 33.9999C12.1461 33.9999 8.09933 33.3147 4.8596 31.9442C1.61987 30.5737 0 28.8615 0 26.8077V6.99995C0 5.06922 1.65897 3.41987 4.9769 2.0519C8.29487 0.683968 12.3026 0 17 0C21.6973 0 25.705 0.683968 29.023 2.0519C32.3409 3.41987 33.9999 5.06922 33.9999 6.99995V26.8077C33.9999 28.8615 32.38 30.5737 29.1403 31.9442C25.9006 33.3147 21.8538 33.9999 17 33.9999ZM17 10.9153C19.9153 10.9153 22.8506 10.5031 25.8057 9.6788C28.7608 8.85444 30.473 7.96534 30.9423 7.0115C30.4859 6.032 28.7916 5.11853 25.8596 4.2711C22.9275 3.42367 19.9743 2.99995 17 2.99995C14.0307 2.99995 11.0878 3.41214 8.1711 4.2365C5.25443 5.06084 3.53713 5.96019 3.0192 6.93455C3.52433 7.93455 5.22882 8.84802 8.13265 9.67495C11.0365 10.5019 13.9923 10.9153 17 10.9153ZM17 20.923C18.3871 20.923 19.7371 20.8563 21.05 20.723C22.3628 20.5897 23.6173 20.3948 24.8134 20.1384C26.0096 19.882 27.1294 19.5641 28.173 19.1846C29.2166 18.8051 30.1589 18.3756 31 17.8961V10.7999C30.1589 11.2794 29.2166 11.7088 28.173 12.0883C27.1294 12.4678 26.0096 12.7858 24.8134 13.0422C23.6173 13.2986 22.3628 13.4935 21.05 13.6268C19.7371 13.7601 18.3871 13.8268 17 13.8268C15.5871 13.8268 14.2108 13.7569 12.8711 13.6172C11.5314 13.4774 10.2666 13.2794 9.07685 13.023C7.88712 12.7665 6.77878 12.4518 5.75185 12.0787C4.72495 11.7056 3.80765 11.2794 2.99995 10.7999V17.8961C3.80765 18.3756 4.72495 18.8019 5.75185 19.175C6.77878 19.548 7.88712 19.8628 9.07685 20.1192C10.2666 20.3756 11.5314 20.5737 12.8711 20.7134C14.2108 20.8531 15.5871 20.923 17 20.923ZM17 31C18.6231 31 20.2167 30.8929 21.7808 30.6788C23.3449 30.4647 24.7679 30.1724 26.05 29.8019C27.332 29.4314 28.4134 29.0012 29.2941 28.5115C30.1749 28.0218 30.7435 27.5077 31 26.9692V20.896C30.1589 21.3755 29.2166 21.805 28.173 22.1845C27.1294 22.564 26.0096 22.8819 24.8134 23.1384C23.6173 23.3948 22.3628 23.5896 21.05 23.723C19.7371 23.8563 18.3871 23.923 17 23.923C15.5871 23.923 14.2108 23.8531 12.8711 23.7134C11.5314 23.5736 10.2666 23.3755 9.07685 23.1191C7.88712 22.8627 6.77878 22.548 5.75185 22.1749C4.72495 21.8018 3.80765 21.3755 2.99995 20.896V27C3.25638 27.5513 3.81985 28.0634 4.69035 28.5365C5.56085 29.0096 6.63713 29.4314 7.9192 29.8019C9.20123 30.1724 10.6294 30.4647 12.2038 30.6788C13.7781 30.8929 15.3769 31 17 31Z" fill="#FBFBFB"/>
</svg>
