<svg width="38" height="43" viewBox="0 0 38 43" fill="none" xmlns="http://www.w3.org/2000/svg">
<path d="M19 42.9999C16.3743 42.9999 13.9057 42.5005 11.5942 41.5018C9.28267 40.5031 7.27178 39.1486 5.56155 37.4384C3.85128 35.7281 2.4968 33.7172 1.4981 31.4057C0.499367 29.0942 0 26.6256 0 24C0 20.4949 0.8859 17.2526 2.6577 14.2731C4.42947 11.2936 6.85508 8.97313 9.93455 7.3116C9.98072 7.79107 10.041 8.27567 10.1153 8.7654C10.1897 9.25514 10.3115 9.81794 10.4807 10.4538C8.1448 11.9333 6.31403 13.8654 4.9884 16.25C3.66277 18.6346 2.99995 21.2179 2.99995 24C2.99995 28.4666 4.54995 32.25 7.64995 35.35C10.75 38.45 14.5333 40 19 40C23.4666 40 27.25 38.45 30.35 35.35C33.45 32.25 35 28.4666 35 24C35 21.2179 34.3339 18.6263 33.0019 16.225C31.6698 13.8237 29.8192 11.8833 27.45 10.4038C27.6192 9.78074 27.7442 9.22755 27.825 8.74425C27.9057 8.26092 27.9794 7.78337 28.0461 7.3116C31.1256 8.97313 33.5544 11.2885 35.3326 14.2577C37.1108 17.2269 37.9999 20.4743 37.9999 24C37.9999 26.6256 37.5005 29.0942 36.5018 31.4057C35.5031 33.7172 34.1486 35.7281 32.4384 37.4384C30.7281 39.1486 28.7172 40.5031 26.4057 41.5018C24.0942 42.5005 21.6256 42.9999 19 42.9999ZM19 34.9999C15.9487 34.9999 13.3526 33.9294 11.2116 31.7884C9.07052 29.6474 8 27.0512 8 24C8 22.3359 8.34808 20.766 9.04425 19.2904C9.74038 17.8148 10.7308 16.5616 12.0154 15.5308C12.1564 15.9411 12.3045 16.3911 12.4595 16.8808C12.6147 17.3705 12.8141 17.9641 13.0577 18.6615C12.3884 19.4025 11.8782 20.2269 11.5269 21.1346C11.1756 22.0423 11 22.9974 11 24C11 26.2 11.7833 28.0833 13.35 29.65C14.9166 31.2166 16.7999 32 19 32C21.2 32 23.0833 31.2166 24.65 29.65C26.2166 28.0833 27 26.2 27 24C27 22.9846 26.8211 22.0295 26.4634 21.1346C26.1057 20.2397 25.5923 19.4153 24.923 18.6615C25.1128 18.1051 25.2551 17.6808 25.35 17.3885C25.4448 17.0962 25.6397 16.4706 25.9346 15.5116C27.232 16.5423 28.2339 17.7987 28.9403 19.2808C29.6467 20.7628 29.9999 22.3359 29.9999 24C29.9999 27.0512 28.9294 29.6474 26.7884 31.7884C24.6474 33.9294 22.0512 34.9999 19 34.9999ZM18.5154 16.4999C18.1718 16.4999 17.8705 16.4006 17.6115 16.2019C17.3525 16.0031 17.1692 15.7422 17.0615 15.4192L15.0423 8.8807C14.8346 8.06533 14.6923 7.36148 14.6154 6.76915C14.5385 6.17685 14.5 5.58712 14.5 4.99995C14.5 3.74098 14.9353 2.67625 15.8058 1.80575C16.6763 0.935253 17.741 0.5 19 0.5C20.2589 0.5 21.3237 0.935253 22.1942 1.80575C23.0647 2.67625 23.4999 3.74098 23.4999 4.99995C23.4999 5.58712 23.4615 6.17685 23.3846 6.76915C23.3076 7.36148 23.1653 8.06533 22.9576 8.8807L20.9384 15.4192C20.8307 15.7422 20.6474 16.0031 20.3884 16.2019C20.1294 16.4006 19.8281 16.4999 19.4846 16.4999H18.5154ZM19 27.4999C18.0282 27.4999 17.2019 27.1595 16.5212 26.4788C15.8404 25.798 15.5 24.9718 15.5 24C15.5 23.0282 15.8404 22.2019 16.5212 21.5212C17.2019 20.8404 18.0282 20.5 19 20.5C19.9718 20.5 20.798 20.8404 21.4788 21.5212C22.1595 22.2019 22.4999 23.0282 22.4999 24C22.4999 24.9718 22.1595 25.798 21.4788 26.4788C20.798 27.1595 19.9718 27.4999 19 27.4999Z" fill="#FBFBFB"/>
</svg>
