<svg width="38" height="37" viewBox="0 0 38 37" fill="none" xmlns="http://www.w3.org/2000/svg">
<path d="M19.9999 21.5V17.1154C19.9999 16.9359 20.0575 16.7884 20.1729 16.673C20.2883 16.5576 20.4357 16.4999 20.6152 16.4999H24.3844C25.3947 16.4999 26.2498 16.1499 26.9499 15.4499C27.6499 14.7499 27.9999 13.8948 27.9999 12.8846V9.11535C27.9999 8.10508 27.6499 7.24997 26.9499 6.55C26.2498 5.85 25.3947 5.5 24.3844 5.5H18.4999C18.0742 5.5 17.7178 5.64359 17.4306 5.93075C17.1435 6.21792 16.9999 6.57432 16.9999 6.99995C16.9999 7.42558 17.1435 7.78198 17.4306 8.06915C17.7178 8.35632 18.0742 8.4999 18.4999 8.4999H24.3844C24.5639 8.4999 24.7114 8.5576 24.8268 8.673C24.9422 8.7884 24.9999 8.93585 24.9999 9.11535V12.8846C24.9999 13.0641 24.9422 13.2115 24.8268 13.3269C24.7114 13.4423 24.5639 13.5 24.3844 13.5H20.6152C19.605 13.5 18.7499 13.85 18.0499 14.55C17.3499 15.25 16.9999 16.1051 16.9999 17.1154V22.6923C16.9999 23.2076 17.1723 23.6377 17.5172 23.9826C17.8621 24.3275 18.2922 24.4999 18.8076 24.4999H26.4999C26.9255 24.4999 27.2819 24.3563 27.569 24.0692C27.8563 23.782 27.9999 23.4256 27.9999 23C27.9999 22.5743 27.8563 22.2179 27.569 21.9308C27.2819 21.6436 26.9255 21.5 26.4999 21.5H19.9999ZM11.1153 29.9999C10.105 29.9999 9.24992 29.6499 8.54995 28.9499C7.84995 28.2499 7.49995 27.3948 7.49995 26.3845V3.6154C7.49995 2.60514 7.84995 1.75 8.54995 1.05C9.24992 0.35 10.105 0 11.1153 0H33.8844C34.8947 0 35.7498 0.35 36.4498 1.05C37.1498 1.75 37.4998 2.60514 37.4998 3.6154V26.3845C37.4998 27.3948 37.1498 28.2499 36.4498 28.9499C35.7498 29.6499 34.8947 29.9999 33.8844 29.9999H11.1153ZM11.1153 27H33.8844C34.0383 27 34.1793 26.9359 34.3076 26.8077C34.4358 26.6794 34.4999 26.5384 34.4999 26.3845V3.6154C34.4999 3.46154 34.4358 3.32049 34.3076 3.19225C34.1793 3.06405 34.0383 2.99995 33.8844 2.99995H11.1153C10.9614 2.99995 10.8204 3.06405 10.6922 3.19225C10.564 3.32049 10.4999 3.46154 10.4999 3.6154V26.3845C10.4999 26.5384 10.564 26.6794 10.6922 26.8077C10.8204 26.9359 10.9614 27 11.1153 27ZM4.11535 36.9998C3.10512 36.9998 2.25 36.6498 1.55 35.9498C0.85 35.2498 0.5 34.3947 0.5 33.3845V9.11535C0.5 8.68972 0.643583 8.33332 0.93075 8.04615C1.21795 7.75899 1.57435 7.6154 1.99995 7.6154C2.42558 7.6154 2.782 7.75899 3.0692 8.04615C3.35637 8.33332 3.49995 8.68972 3.49995 9.11535V33.3845C3.49995 33.5383 3.56405 33.6794 3.69225 33.8076C3.82048 33.9358 3.96152 33.9999 4.11535 33.9999H28.3844C28.8101 33.9999 29.1665 34.1435 29.4537 34.4307C29.7409 34.7178 29.8844 35.0742 29.8844 35.4999C29.8844 35.9255 29.7409 36.2819 29.4537 36.5691C29.1665 36.8562 28.8101 36.9998 28.3844 36.9998H4.11535Z" fill="#FBFBFB"/>
</svg>
