<svg width="45" height="50" viewBox="0 0 45 50" fill="none" xmlns="http://www.w3.org/2000/svg">
<path d="M19.6408 4.03497L5.59139 12.1613L19.9998 20.4895L34.4082 12.1613L20.3588 4.03497C20.2391 3.96019 20.1194 3.9228 19.9998 3.9228C19.8801 3.9228 19.7605 3.96019 19.6408 4.03497ZM0.166504 31.3484V13.651C0.166504 12.8852 0.351051 12.1838 0.720145 11.5468C1.0892 10.9098 1.60765 10.3967 2.27549 10.0074L17.8908 1.01966C18.2498 0.825219 18.5949 0.680884 18.9263 0.586656C19.2576 0.492428 19.615 0.445312 19.9987 0.445312C20.3823 0.445312 20.7499 0.492428 21.1013 0.586656C21.4529 0.680884 21.7887 0.825219 22.1088 1.01966L37.7241 10.0074C38.3919 10.3967 38.9104 10.9098 39.2794 11.5468C39.6485 12.1838 39.8331 12.8852 39.8331 13.651V20.5703C39.8331 21.0661 39.6653 21.4817 39.3297 21.8171C38.9941 22.1525 38.5783 22.3202 38.0823 22.3202C37.5862 22.3202 37.1707 22.1525 36.8357 21.8171C36.5006 21.4817 36.3331 21.0661 36.3331 20.5703V15.0599L22.0504 23.3029C21.3814 23.6858 20.6772 23.8772 19.9378 23.8772C19.1983 23.8772 18.4966 23.6858 17.8325 23.3029L3.66645 15.0599V31.3125C3.66645 31.4322 3.69637 31.5444 3.75622 31.649C3.81603 31.7538 3.90577 31.8435 4.02543 31.9183L17.5095 39.7664C17.772 39.9123 17.9834 40.1165 18.1438 40.3792C18.3043 40.6418 18.3845 40.9336 18.3845 41.2546C18.3845 41.9257 18.0965 42.425 17.5207 42.7526C16.9448 43.0801 16.3653 43.0824 15.7819 42.7593L2.27549 34.992C1.60765 34.6027 1.0892 34.0895 0.720145 33.4525C0.351051 32.8156 0.166504 32.1142 0.166504 31.3484ZM33.9998 49.0412C31.0861 49.0412 28.6077 48.0197 26.5646 45.9765C24.5214 43.9334 23.4998 41.455 23.4998 38.5414C23.4998 35.6277 24.5214 33.1493 26.5646 31.1061C28.6077 29.063 31.0861 28.0414 33.9998 28.0414C36.9134 28.0414 39.3918 29.063 41.435 31.1061C43.4781 33.1493 44.4997 35.6277 44.4997 38.5414C44.4997 41.455 43.4781 43.9334 41.435 45.9765C39.3918 48.0197 36.9134 49.0412 33.9998 49.0412ZM32.9677 41.1304L29.719 37.8817C29.5156 37.6783 29.2771 37.5728 29.0034 37.5654C28.7296 37.5579 28.4836 37.6634 28.2652 37.8817C28.0468 38.1001 27.9377 38.3424 27.9377 38.6087C27.9377 38.8749 28.0468 39.1172 28.2652 39.3356L32.5235 43.5939C32.7419 43.8123 32.9732 43.9663 33.2175 44.0561C33.4618 44.1458 33.7236 44.1907 34.0028 44.1907C34.282 44.1907 34.5427 44.1458 34.785 44.0561C35.0273 43.9663 35.2577 43.8123 35.476 43.5939L39.7344 39.3356C39.9378 39.1321 40.0432 38.8936 40.0507 38.6199C40.0582 38.3461 39.9527 38.1001 39.7344 37.8817C39.516 37.6634 39.2737 37.5542 39.0075 37.5542C38.7412 37.5542 38.4963 37.6659 38.2728 37.8894L35.0318 41.1304V33.0445C35.0318 32.7693 34.9286 32.5285 34.7222 32.3221C34.5158 32.1157 34.275 32.0125 33.9998 32.0125C33.7246 32.0125 33.4837 32.1157 33.2773 32.3221C33.0709 32.5285 32.9677 32.7693 32.9677 33.0445V41.1304Z" fill="#FBFBFB"/>
</svg>
