<svg width="12" height="27" viewBox="0 0 12 27" fill="none" xmlns="http://www.w3.org/2000/svg">
<path d="M5.24822 26.5V23.3882C3.99248 23.2196 2.91365 22.7657 2.01171 22.0265C1.1098 21.2873 0.439231 20.2647 0 18.9588L1.35711 18.3412C1.77946 19.4863 2.35994 20.3676 3.09855 20.9853C3.83717 21.6029 4.83904 21.9118 6.10417 21.9118C7.21728 21.9118 8.23417 21.6221 9.15485 21.0426C10.0755 20.4632 10.5359 19.5294 10.5359 18.2412C10.5359 17.153 10.1971 16.2789 9.51948 15.6191C8.84187 14.9593 7.57392 14.3177 5.71563 13.6941C3.82355 13.0647 2.49178 12.3456 1.72032 11.5368C0.948836 10.7279 0.563094 9.67451 0.563094 8.37647C0.563094 6.95491 1.08492 5.81961 2.12858 4.97058C3.17222 4.12156 4.2121 3.66273 5.24822 3.59411V0.5H6.71236V3.59411C7.72596 3.7 8.59644 3.99363 9.3238 4.47502C10.0512 4.95637 10.6542 5.64117 11.1328 6.5294L9.832 7.22352C9.48288 6.5647 9.00236 6.03137 8.39044 5.62353C7.77852 5.21569 6.99954 5.01177 6.05351 5.01177C4.92352 5.01177 3.96997 5.32402 3.19288 5.94853C2.41578 6.57304 2.02723 7.38235 2.02723 8.37647C2.02723 9.31568 2.34633 10.0765 2.98454 10.6588C3.62271 11.2412 4.90098 11.849 6.81935 12.4824C8.59692 13.0706 9.90475 13.826 10.7429 14.7485C11.581 15.6711 12 16.8294 12 18.2235C12 19.7588 11.4829 20.9784 10.4486 21.8824C9.41437 22.7863 8.16895 23.2941 6.71236 23.4059V26.5H5.24822Z" fill="#FBFBFB"/>
</svg>
