<svg width="24" height="26" viewBox="0 0 24 26" fill="none" xmlns="http://www.w3.org/2000/svg">
<path d="M23.4344 14.8L21.3761 7.39434C20.7728 5.22478 19.4616 3.31915 17.6509 1.98034C15.8402 0.641542 13.634 -0.0535962 11.3829 0.00542394C9.13175 0.0644441 6.96497 0.874236 5.22693 2.30608C3.48889 3.73792 2.27933 5.70965 1.79052 7.90784L0.196942 15.0741C0.0209166 15.8659 0.0249863 16.6872 0.20885 17.4773C0.392715 18.2673 0.751678 19.006 1.25924 19.6388C1.7668 20.2715 2.41 20.7822 3.14135 21.1331C3.87269 21.484 4.67352 21.6662 5.48469 21.6662H6.69152C6.94017 22.8906 7.60448 23.9915 8.57191 24.7822C9.53934 25.573 10.7504 26.0049 11.9999 26.0049C13.2493 26.0049 14.4604 25.573 15.4278 24.7822C16.3952 23.9915 17.0596 22.8906 17.3082 21.6662H18.216C19.0511 21.6662 19.8748 21.4732 20.6229 21.1022C21.371 20.7312 22.0232 20.1923 22.5286 19.5275C23.0339 18.8627 23.3787 18.0901 23.5361 17.27C23.6934 16.45 23.659 15.6046 23.4355 14.8H23.4344ZM11.9999 23.8328C11.3301 23.8301 10.6775 23.6204 10.1314 23.2326C9.58536 22.8447 9.17245 22.2977 8.94919 21.6662H15.0505C14.8273 22.2977 14.4144 22.8447 13.8683 23.2326C13.3222 23.6204 12.6696 23.8301 11.9999 23.8328ZM20.803 18.2158C20.5011 18.6162 20.11 18.9408 19.6608 19.1636C19.2115 19.3865 18.7164 19.5015 18.2149 19.4995H5.48469C4.99804 19.4994 4.51762 19.39 4.07889 19.1795C3.64017 18.9689 3.25433 18.6625 2.94987 18.2828C2.6454 17.9032 2.43008 17.46 2.3198 16.986C2.20952 16.512 2.20709 16.0193 2.31269 15.5443L3.90519 8.37692C4.28907 6.65031 5.23911 5.10157 6.60427 3.97691C7.96943 2.85224 9.67137 2.21619 11.4395 2.16987C13.2077 2.12355 14.9406 2.66961 16.3628 3.72126C17.7849 4.77291 18.8148 6.26978 19.2885 7.97392L21.3469 15.3796C21.4829 15.8621 21.5045 16.3696 21.4101 16.8619C21.3157 17.3543 21.1079 17.8178 20.803 18.2158Z" fill="white"/>
</svg>
