<svg width="48" height="49" viewBox="0 0 48 49" fill="none" xmlns="http://www.w3.org/2000/svg">
<circle cx="24" cy="24.5" r="24" fill="url(#paint0_radial_90_16157)"/>
<mask id="mask0_90_16157" style="mask-type:alpha" maskUnits="userSpaceOnUse" x="16" y="11" width="28" height="28">
<rect x="16" y="11" width="28" height="28" fill="#D9D9D9"/>
</mask>
<g mask="url(#mask0_90_16157)">
<path d="M19.7151 24.9997L28.5033 33.7879C28.7351 34.0197 28.848 34.2927 28.842 34.6068C28.836 34.9209 28.7171 35.1938 28.4853 35.4257C28.2535 35.6575 27.9805 35.7734 27.6664 35.7734C27.3523 35.7734 27.0793 35.6575 26.8475 35.4257L17.8979 26.4939C17.6869 26.283 17.5306 26.0467 17.4289 25.785C17.3272 25.5232 17.2764 25.2614 17.2764 24.9997C17.2764 24.738 17.3272 24.4762 17.4289 24.2145C17.5306 23.9527 17.6869 23.7164 17.8979 23.5055L26.8475 14.5558C27.0793 14.324 27.3553 14.2111 27.6754 14.217C27.9955 14.223 28.2714 14.3419 28.5033 14.5738C28.7351 14.8056 28.851 15.0786 28.851 15.3926C28.851 15.7067 28.7351 15.9797 28.5033 16.2116L19.7151 24.9997Z" fill="#1CE3C7"/>
</g>
<defs>
<radialGradient id="paint0_radial_90_16157" cx="0" cy="0" r="1" gradientUnits="userSpaceOnUse" gradientTransform="translate(24 24.5) rotate(90) scale(24)">
<stop stop-color="#1CE3C7" stop-opacity="0.37"/>
<stop offset="1" stop-color="#1CE3C7" stop-opacity="0"/>
</radialGradient>
</defs>
</svg>
