<svg width="24" height="25" viewBox="0 0 24 25" fill="none" xmlns="http://www.w3.org/2000/svg">
<mask id="mask0_75_15706" style="mask-type:alpha" maskUnits="userSpaceOnUse" x="0" y="0" width="24" height="25">
<rect y="0.5" width="24" height="24" fill="#D9D9D9"/>
</mask>
<g mask="url(#mask0_75_15706)">
<path d="M4.99997 19.5H6.2615L16.4981 9.2634L15.2366 8.00188L4.99997 18.2385V19.5ZM4.40385 21C4.14777 21 3.93311 20.9133 3.75987 20.7401C3.58662 20.5668 3.5 20.3522 3.5 20.0961V18.3635C3.5 18.1196 3.5468 17.8871 3.6404 17.6661C3.73398 17.4451 3.86282 17.2526 4.02692 17.0885L16.6904 4.43078C16.8416 4.29343 17.0086 4.18729 17.1913 4.11237C17.374 4.03746 17.5656 4 17.7661 4C17.9666 4 18.1608 4.03558 18.3488 4.10675C18.5368 4.1779 18.7032 4.29103 18.848 4.44615L20.0692 5.68268C20.2243 5.82754 20.3349 5.99424 20.4009 6.18278C20.4669 6.37129 20.5 6.55981 20.5 6.74833C20.5 6.94941 20.4656 7.14131 20.3969 7.32403C20.3283 7.50676 20.219 7.67373 20.0692 7.82495L7.41147 20.473C7.24738 20.6371 7.05483 20.766 6.83383 20.8596C6.61281 20.9532 6.38037 21 6.1365 21H4.40385ZM15.8563 8.6437L15.2366 8.00188L16.4981 9.2634L15.8563 8.6437Z" fill="white"/>
</g>
</svg>
