<svg width="44" height="37" viewBox="0 0 44 37" fill="none" xmlns="http://www.w3.org/2000/svg">
<path d="M18.3332 16.7824C16.0807 16.7824 14.1564 15.9844 12.5605 14.3885C10.9645 12.7926 10.1666 10.8684 10.1666 8.61583C10.1666 6.36327 10.9645 4.43903 12.5605 2.8431C14.1564 1.24718 16.0807 0.449219 18.3332 0.449219C20.5857 0.449219 22.51 1.24718 24.1059 2.8431C25.7018 4.43903 26.4998 6.36327 26.4998 8.61583C26.4998 10.8684 25.7018 12.7926 24.1059 14.3885C22.51 15.9844 20.5857 16.7824 18.3332 16.7824ZM0.833252 31.0068V29.3645C0.833252 28.1859 1.1339 27.1187 1.7352 26.1629C2.33646 25.2072 3.17555 24.4675 4.25246 23.944C6.19095 22.9778 8.28497 22.1708 10.5345 21.5232C12.7841 20.8756 15.3836 20.5518 18.3332 20.5518H19.0152C19.2037 20.5518 19.4071 20.5757 19.6255 20.6235C19.3892 21.1739 19.194 21.7348 19.0399 22.3062C18.8859 22.8776 18.758 23.4594 18.6563 24.0516H18.3332C15.6469 24.0516 13.2687 24.3605 11.1986 24.9783C9.12852 25.596 7.3486 26.2922 5.85884 27.067C5.32937 27.3512 4.94272 27.6833 4.69889 28.0632C4.45509 28.4431 4.33319 28.8769 4.33319 29.3645V31.0516H19.0332C19.2067 31.6439 19.4318 32.2452 19.7085 32.8554C19.9852 33.4657 20.2896 34.0311 20.6216 34.5516H4.37805C3.39389 34.5516 2.55706 34.2068 1.86756 33.5173C1.17802 32.8278 0.833252 31.9909 0.833252 31.0068ZM32.3422 34.9285L32.0595 33.183C31.5031 33.0184 30.9796 32.803 30.489 32.5368C29.9984 32.2706 29.5317 31.937 29.089 31.5362L27.3524 32.1733C26.9815 32.299 26.624 32.2908 26.28 32.1487C25.936 32.0066 25.6653 31.7815 25.4679 31.4733L25.1582 30.9259C24.9608 30.5939 24.8898 30.2304 24.9451 29.8356C25.0004 29.4407 25.1822 29.1207 25.4903 28.8753L26.8858 27.767C26.7183 27.1628 26.6346 26.5675 26.6346 25.9811C26.6346 25.3948 26.7183 24.7995 26.8858 24.1952L25.5127 23.042C25.2046 22.7967 25.0192 22.4863 24.9564 22.1109C24.8935 21.7355 24.9608 21.3818 25.1582 21.0498L25.5038 20.4664C25.7012 20.1583 25.9697 19.9332 26.3092 19.7911C26.6487 19.649 27.0039 19.6408 27.3749 19.7664L29.089 20.4037C29.5168 20.0028 29.9797 19.673 30.4778 19.4142C30.9758 19.1554 31.5031 18.9438 32.0595 18.7792L32.3422 16.9979C32.414 16.603 32.598 16.2851 32.8941 16.0443C33.1903 15.8035 33.5358 15.6831 33.9306 15.6831H34.5498C34.9447 15.6831 35.2902 15.8095 35.5863 16.0623C35.8825 16.3151 36.0664 16.6389 36.1382 17.0337L36.3985 18.7792C36.9549 18.9438 37.4822 19.1614 37.9802 19.4322C38.4783 19.7029 38.9412 20.0506 39.369 20.4754L41.0113 19.8382C41.4062 19.6887 41.7816 19.6849 42.1376 19.827C42.4936 19.9691 42.7703 20.2062 42.9677 20.5382L43.2997 21.0856C43.4972 21.4177 43.5645 21.7774 43.5016 22.1648C43.4388 22.5522 43.2534 22.8685 42.9453 23.1138L41.5721 24.267C41.7397 24.8234 41.8234 25.4067 41.8234 26.017C41.8234 26.6273 41.7397 27.2106 41.5721 27.767L42.9677 28.8753C43.2758 29.1207 43.4576 29.4348 43.5129 29.8177C43.5682 30.2006 43.4972 30.558 43.2997 30.8901L42.9542 31.4733C42.7568 31.7815 42.4921 32.0066 42.16 32.1487C41.828 32.2908 41.4765 32.299 41.1056 32.1733L39.369 31.5362C38.9263 31.937 38.4596 32.2706 37.969 32.5368C37.4784 32.803 36.9549 33.0184 36.3985 33.183L36.1382 34.9644C36.0664 35.3592 35.8825 35.6771 35.5863 35.9179C35.2902 36.1587 34.9447 36.2791 34.5498 36.2791H33.9306C33.5358 36.2791 33.1903 36.1527 32.8941 35.8999C32.598 35.6472 32.414 35.3234 32.3422 34.9285ZM34.2178 30.4234C35.4413 30.4234 36.4876 29.9889 37.3566 29.1199C38.2256 28.2509 38.6601 27.2046 38.6601 25.9811C38.6601 24.7576 38.2256 23.7113 37.3566 22.8423C36.4876 21.9733 35.4413 21.5388 34.2178 21.5388C32.9943 21.5388 31.948 21.9733 31.079 22.8423C30.21 23.7113 29.7755 24.7576 29.7755 25.9811C29.7755 27.2046 30.21 28.2509 31.079 29.1199C31.948 29.9889 32.9943 30.4234 34.2178 30.4234ZM18.3332 13.2825C19.6165 13.2825 20.7151 12.8256 21.629 11.9117C22.5429 10.9978 22.9999 9.89916 22.9999 8.61583C22.9999 7.3325 22.5429 6.23388 21.629 5.32C20.7151 4.40611 19.6165 3.94916 18.3332 3.94916C17.0499 3.94916 15.9512 4.40611 15.0374 5.32C14.1235 6.23388 13.6665 7.3325 13.6665 8.61583C13.6665 9.89916 14.1235 10.9978 15.0374 11.9117C15.9512 12.8256 17.0499 13.2825 18.3332 13.2825Z" fill="white"/>
</svg>
